<svg xmlns="http://www.w3.org/2000/svg" width="162" height="43" viewBox="0 0 162 43" fill="none"><path fill-rule="evenodd" clip-rule="evenodd" d="M56.5178 32.4612C57.3668 33.4172 57.7912 34.6021 57.7912 36.0158C57.7912 37.8096 57.0973 39.2547 55.7095 40.3509C54.3216 41.4472 52.4742 41.9953 50.1673 41.9953C47.9526 41.9953 46.1643 41.4435 44.8023 40.3399C43.4403 39.2362 42.7593 37.769 42.7593 35.9382H46.9948C46.9948 36.7909 47.2901 37.4368 47.8807 37.8761C48.4712 38.3153 49.2704 38.5349 50.278 38.5349C51.1897 38.5349 51.9039 38.3596 52.4207 38.0089C52.9374 37.6546 53.1958 37.1581 53.1958 36.5196C53.1958 35.977 53.0279 35.5304 52.692 35.1797C52.3561 34.8328 51.8763 34.6058 51.2525 34.4987L48.4565 33.9949C46.6774 33.6922 45.3633 33.0795 44.5144 32.1567C43.6654 31.2303 43.241 30.1026 43.241 28.7738C43.241 27.0907 43.8887 25.7398 45.1843 24.721C46.4799 23.6986 48.187 23.1874 50.3057 23.1874C52.3912 23.1874 54.0761 23.6857 55.3606 24.6823C56.6451 25.6789 57.2874 27.0021 57.2874 28.652H53.1017C53.1017 28.0135 52.8489 27.5133 52.3432 27.1516C51.8375 26.7899 51.1916 26.609 50.4054 26.609C49.6487 26.609 49.0304 26.7696 48.5506 27.0907C48.0708 27.4081 47.8308 27.8548 47.8308 28.4306C47.8308 29.3423 48.5284 29.9125 49.9237 30.1414L52.7916 30.6231C54.4231 30.8925 55.6652 31.5052 56.5178 32.4612ZM60.2827 23.431H73.4433V26.991H64.5681V30.9165H70.8466V34.2772H64.5681V38.1307H73.4433V41.7129H60.2827V23.431ZM87.833 34.8807L91.2325 41.7129H86.4931L83.675 35.5562H80.2146V41.7129H75.9292V23.431H84.2286C86.4913 23.431 88.2519 23.9791 89.5106 25.0754C90.7655 26.1716 91.393 27.6499 91.393 29.5102C91.393 30.8095 91.0756 31.915 90.4407 32.8267C89.8096 33.742 88.9403 34.4267 87.833 34.8807ZM86.8475 29.6818C86.8475 28.8292 86.554 28.187 85.9671 27.7551C85.3803 27.3269 84.5664 27.1128 83.5255 27.1128H80.2146V32.2065H83.5255C84.5664 32.2065 85.3803 31.998 85.9671 31.5809C86.554 31.1601 86.8475 30.5271 86.8475 29.6818ZM104.969 23.431H109.686L103.457 41.7129H98.336L91.8083 23.431H96.675L100.833 36.7964L104.969 23.431ZM124.818 25.6678C126.412 27.3214 127.209 29.6191 127.209 32.5609C127.209 35.5027 126.409 37.8041 124.807 39.4651C123.201 41.1297 121.084 41.9621 118.456 41.9621C115.813 41.9621 113.693 41.1297 112.094 39.4651C110.493 37.8041 109.692 35.5045 109.692 32.5664C109.692 29.6468 110.498 27.3528 112.111 25.6844C113.724 24.0197 115.839 23.1874 118.456 23.1874C121.099 23.1874 123.219 24.0142 124.818 25.6678ZM122.719 32.5664C122.719 30.7689 122.337 29.3626 121.573 28.3475C120.809 27.3288 119.77 26.8194 118.456 26.8194C117.127 26.8194 116.086 27.3214 115.333 28.3254C114.577 29.333 114.198 30.7449 114.198 32.5609C114.198 34.3806 114.582 35.798 115.35 36.813C116.118 37.8318 117.153 38.3411 118.456 38.3411C119.789 38.3411 120.831 37.8318 121.584 36.813C122.341 35.798 122.719 34.3824 122.719 32.5664ZM143.144 34.316C141.837 35.4159 140.084 35.9659 137.884 35.9659H133.898V41.7129H129.612V23.431H137.934C140.186 23.431 141.942 23.9994 143.205 25.1363C144.467 26.2731 145.098 27.7975 145.098 29.7095C145.098 31.6806 144.447 33.2161 143.144 34.316ZM140.58 29.7372C140.58 28.8846 140.3 28.2331 139.739 27.7828C139.178 27.3362 138.417 27.1128 137.458 27.1128H133.898V32.4059H137.458C138.432 32.4059 139.196 32.1641 139.75 31.6806C140.304 31.197 140.58 30.5493 140.58 29.7372ZM161.609 41.7129H156.947L155.552 37.5992H149.273L147.861 41.7129H143.426L149.976 23.431H154.754L161.609 41.7129ZM154.466 34.4046L152.451 28.4583L150.38 34.4046H154.466Z" fill="#ACB4BC"></path><path fill-rule="evenodd" clip-rule="evenodd" d="M45.9705 7.0592C45.0588 8.13331 44.603 9.65035 44.603 11.6103C44.603 13.574 45.0588 15.0929 45.9705 16.167C46.8859 17.2374 48.0947 17.7726 49.597 17.7726C51.605 17.7726 53.0113 16.907 53.8159 15.1759H55.7648C54.687 17.9848 52.6311 19.3893 49.597 19.3893C47.53 19.3893 45.8727 18.712 44.6251 17.3573C43.3812 16.0027 42.7593 14.0852 42.7593 11.6048C42.7593 9.12806 43.3812 7.21054 44.6251 5.85222C45.8727 4.49759 47.53 3.82028 49.597 3.82028C52.6311 3.82028 54.687 5.22473 55.7648 8.03365H53.8159C53.0076 6.30253 51.6013 5.44066 49.597 5.44804C48.0947 5.44804 46.8859 5.9851 45.9705 7.0592ZM68.9365 5.85222C70.1804 7.21054 70.8023 9.12806 70.8023 11.6048C70.8023 14.0852 70.1804 16.0027 68.9365 17.3573C67.6889 18.712 66.0334 19.3893 63.9701 19.3893C61.9068 19.3893 60.2532 18.712 59.0093 17.3573C57.7617 16.0027 57.1379 14.0852 57.1379 11.6048C57.1379 9.12806 57.7617 7.21054 59.0093 5.85222C60.2532 4.49759 61.9068 3.82028 63.9701 3.82028C66.0334 3.82028 67.6889 4.49759 68.9365 5.85222ZM68.9586 11.6103C68.9586 9.65035 68.5046 8.13331 67.5966 7.0592C66.6849 5.9851 65.4779 5.44804 63.9756 5.44804C62.4734 5.44804 61.2645 5.9851 60.3491 7.0592C59.4375 8.13331 58.9816 9.65035 58.9816 11.6103C58.9816 13.574 59.4375 15.0929 60.3491 16.167C61.2645 17.2374 62.4734 17.7726 63.9756 17.7726C65.4779 17.7726 66.6849 17.2374 67.5966 16.167C68.5046 15.0929 68.9586 13.574 68.9586 11.6103ZM83.531 4.03067H85.3747V19.1789H82.7725L75.1818 6.30622H75.0766V19.1789H73.2329V4.03067H75.8406L83.4258 16.9089H83.531V4.03067ZM97.9595 12.8727C98.3913 13.4559 98.6073 14.1885 98.6073 15.0707C98.6073 16.2666 98.1127 17.2854 97.1234 18.1269C96.1379 18.9685 94.7907 19.3893 93.0817 19.3893C91.5942 19.3893 90.3706 19.0239 89.4109 18.293C88.4512 17.5585 87.8348 16.5545 87.5617 15.2811H89.3998C89.9498 16.9421 91.1771 17.7726 93.0817 17.7726C94.2813 17.7726 95.1949 17.5216 95.8223 17.0196C96.4498 16.5139 96.7636 15.8643 96.7636 15.0707C96.7636 14.5503 96.603 14.1129 96.2819 13.7585C95.9571 13.4079 95.5381 13.1421 95.0251 12.9613C94.512 12.7804 93.9417 12.618 93.3142 12.474C92.6868 12.3301 92.0611 12.1603 91.4373 11.9647C90.8135 11.7653 90.2451 11.518 89.732 11.2228C89.2227 10.9275 88.8056 10.503 88.4808 9.94933C88.156 9.39935 87.9935 8.72573 87.9935 7.92846C87.9935 6.74731 88.4494 5.76732 89.3611 4.9885C90.2691 4.20969 91.5093 3.82028 93.0817 3.82028C94.4585 3.82028 95.6027 4.13771 96.5144 4.77258C97.4224 5.40375 98.0148 6.31176 98.2917 7.4966H96.448C95.9423 6.12351 94.8202 5.44066 93.0817 5.44804C92.0445 5.44804 91.2435 5.67874 90.6788 6.14012C90.1178 6.60151 89.8372 7.19762 89.8372 7.92846C89.8372 8.56332 90.0532 9.08561 90.485 9.49532C90.9206 9.90872 91.4632 10.1985 92.1128 10.3646C92.7587 10.5307 93.4619 10.7208 94.2222 10.9348C94.9789 11.1489 95.6839 11.3796 96.3372 11.6269C96.9906 11.8742 97.5313 12.2895 97.9595 12.8727ZM122.681 13.1274L127.021 19.1789H124.967L120.626 13.1274H118.024V19.1789H116.186V4.03067H122.038C123.496 4.03067 124.655 4.44961 125.515 5.28748C126.379 6.12536 126.811 7.21977 126.811 8.5707C126.811 9.95855 126.394 11.0308 125.56 11.7875C124.725 12.5442 123.766 12.9908 122.681 13.1274ZM121.928 11.4996C122.88 11.4996 123.625 11.232 124.164 10.6968C124.7 10.1616 124.967 9.45472 124.967 8.57624C124.967 7.70145 124.7 6.99646 124.164 6.46125C123.625 5.92604 122.88 5.65844 121.928 5.65844H118.024V11.4996H121.928ZM111.884 5.85222C113.128 7.20685 113.75 9.12437 113.75 11.6048C113.75 14.0852 113.128 16.0027 111.884 17.3573C110.637 18.712 108.981 19.3893 106.918 19.3893C104.854 19.3893 103.201 18.712 101.957 17.3573C100.709 16.0027 100.086 14.0852 100.086 11.6048C100.086 9.12437 100.709 7.20685 101.957 5.85222C103.201 4.49759 104.854 3.82028 106.918 3.82028C108.981 3.82028 110.637 4.49759 111.884 5.85222ZM111.906 11.6103C111.906 9.65035 111.452 8.13331 110.544 7.0592C109.633 5.9851 108.426 5.44804 106.923 5.44804C105.421 5.44804 104.212 5.9851 103.297 7.0592C102.385 8.13331 101.929 9.65035 101.929 11.6103C101.929 13.5703 102.385 15.0873 103.297 16.1614C104.212 17.2355 105.421 17.7726 106.923 17.7726C108.426 17.7726 109.633 17.2355 110.544 16.1614C111.452 15.0873 111.906 13.5703 111.906 11.6103ZM131.733 7.0592C130.821 8.13331 130.365 9.65035 130.365 11.6103C130.365 13.5703 130.821 15.0873 131.733 16.1614C132.648 17.2355 133.857 17.7726 135.359 17.7726C137.371 17.7726 138.779 16.907 139.584 15.1759H141.527C140.449 17.9848 138.393 19.3893 135.359 19.3893C133.292 19.3893 131.637 18.712 130.393 17.3573C129.145 16.0027 128.522 14.0852 128.522 11.6048C128.522 9.12437 129.145 7.20685 130.393 5.85222C131.637 4.49759 133.292 3.82028 135.359 3.82028C138.393 3.82028 140.449 5.22473 141.527 8.03365H139.584C138.772 6.30253 137.364 5.44066 135.359 5.44804C133.857 5.44804 132.648 5.9851 131.733 7.0592ZM143.653 4.03067H145.497V19.1789H143.653V4.03067ZM161.609 11.6048C161.609 14.0815 160.987 15.999 159.743 17.3573C158.495 18.712 156.84 19.3893 154.776 19.3893C152.713 19.3893 151.059 18.712 149.816 17.3573C148.568 15.999 147.944 14.0815 147.944 11.6048C147.944 9.12437 148.568 7.20685 149.816 5.85222C151.059 4.49759 152.713 3.82028 154.776 3.82028C156.84 3.82028 158.495 4.49759 159.743 5.85222C160.987 7.20685 161.609 9.12437 161.609 11.6048ZM159.765 11.6103C159.765 9.64666 159.311 8.12777 158.403 7.05367C157.491 5.98325 156.284 5.44804 154.782 5.44804C153.28 5.44804 152.071 5.98325 151.155 7.05367C150.244 8.12777 149.788 9.64666 149.788 11.6103C149.788 13.5703 150.244 15.0873 151.155 16.1614C152.071 17.2355 153.28 17.7726 154.782 17.7726C156.284 17.7726 157.491 17.2355 158.403 16.1614C159.311 15.0873 159.765 13.5703 159.765 11.6103ZM108.252 2.58561H106.646L108.269 0H110.334L108.252 2.58561Z" fill="#B60B29"></path><path d="M33.0977 4.00299H18.3592C15.6463 4.00299 13.4482 6.20103 13.4482 8.91398V17.4515H19.0015V10.4532C19.0015 9.96041 19.4057 9.55623 19.8984 9.55623H31.5586C32.0513 9.55623 32.4555 9.96041 32.4555 10.4532V22.1078C32.4555 22.6061 32.0513 23.0047 31.5586 23.0047H13.4482V23.6857C13.4482 26.3821 15.6297 28.5635 18.3205 28.5635H33.0977C35.8107 28.5635 38.0087 26.3599 38.0087 23.647V8.91398C38.0087 6.20103 35.8107 4.00299 33.0977 4.00299Z" fill="#ACB4BC"></path><path d="M19.0017 28.5635V35.5563C19.0017 36.0546 18.6031 36.4532 18.1048 36.4532H6.45017C5.95741 36.4532 5.55324 36.0546 5.55324 35.5563V23.9017C5.55324 23.4089 5.95741 23.0047 6.45017 23.0047H24.5605V22.3292C24.5605 19.6329 22.3735 17.4515 19.6772 17.4515H4.87777C2.18143 17.4515 0 19.6329 0 22.3292V37.1342C0 39.825 2.18143 42.012 4.87777 42.012H19.6772C22.3735 42.012 24.5605 39.825 24.5605 37.1342V28.5635H19.0017Z" fill="#B60B29"></path></svg>